<mxfile host="65bd71144e">
    <diagram id="Aw0ZpEG7ChRQhpV15eSK" name="Page-1">
        <mxGraphModel dx="1031" dy="385" grid="1" gridSize="10" guides="1" tooltips="1" connect="1" arrows="1" fold="1" page="1" pageScale="1" pageWidth="850" pageHeight="1100" math="0" shadow="0">
            <root>
                <mxCell id="0"/>
                <mxCell id="1" parent="0"/>
                <mxCell id="15" style="edgeStyle=none;html=1;" edge="1" parent="1" source="3" target="5">
                    <mxGeometry relative="1" as="geometry"/>
                </mxCell>
                <mxCell id="3" value="" style="fontColor=#0066CC;verticalAlign=top;verticalLabelPosition=bottom;labelPosition=center;align=center;html=1;outlineConnect=0;fillColor=#CCCCCC;strokeColor=#6881B3;gradientColor=none;gradientDirection=north;strokeWidth=2;shape=mxgraph.networks.terminal;" vertex="1" parent="1">
                    <mxGeometry x="70" y="140" width="130" height="110" as="geometry"/>
                </mxCell>
                <mxCell id="4" value="" style="shape=image;imageAspect=0;aspect=fixed;verticalLabelPosition=bottom;verticalAlign=top;image=https://www.djangoproject.com/s/img/logos/django-logo-positive.png;" vertex="1" parent="1">
                    <mxGeometry x="90" y="163" width="90" height="31.33" as="geometry"/>
                </mxCell>
                <mxCell id="16" style="edgeStyle=none;html=1;entryX=0;entryY=0.5;entryDx=0;entryDy=0;" edge="1" parent="1" source="5" target="9">
                    <mxGeometry relative="1" as="geometry"/>
                </mxCell>
                <mxCell id="5" value="" style="shape=image;imageAspect=0;aspect=fixed;verticalLabelPosition=bottom;verticalAlign=top;image=https://www.melihatdunia.com/uploads/articles/cover_syntax_git_yang_sering_dipakai.png;" vertex="1" parent="1">
                    <mxGeometry x="280" y="155" width="140" height="77.81" as="geometry"/>
                </mxCell>
                <mxCell id="19" style="edgeStyle=none;html=1;entryX=0.5;entryY=1;entryDx=0;entryDy=0;" edge="1" parent="1" source="9" target="13">
                    <mxGeometry relative="1" as="geometry">
                        <Array as="points">
                            <mxPoint x="762" y="193"/>
                        </Array>
                    </mxGeometry>
                </mxCell>
                <mxCell id="9" value="" style="shape=image;imageAspect=0;aspect=fixed;verticalLabelPosition=bottom;verticalAlign=top;image=https://i.morioh.com/210508/a8abafdf.webp;" vertex="1" parent="1">
                    <mxGeometry x="477" y="143.31" width="180" height="99.69" as="geometry"/>
                </mxCell>
                <mxCell id="18" style="edgeStyle=none;html=1;entryX=0;entryY=0.5;entryDx=0;entryDy=0;" edge="1" parent="1" source="10" target="11">
                    <mxGeometry relative="1" as="geometry"/>
                </mxCell>
                <mxCell id="10" value="" style="shape=image;imageAspect=0;aspect=fixed;verticalLabelPosition=bottom;verticalAlign=top;image=https://www.djangoproject.com/s/img/logos/django-logo-positive.png;" vertex="1" parent="1">
                    <mxGeometry x="477" y="270.00000000000006" width="90" height="31.33" as="geometry"/>
                </mxCell>
                <mxCell id="11" value="" style="shape=image;imageAspect=0;aspect=fixed;verticalLabelPosition=bottom;verticalAlign=top;image=https://miro.medium.com/max/336/1*glD7bNJG3SlO0_xNmSGPcQ.png;" vertex="1" parent="1">
                    <mxGeometry x="600" y="257.48" width="66" height="56.38" as="geometry"/>
                </mxCell>
                <mxCell id="13" value="" style="shape=image;imageAspect=0;aspect=fixed;verticalLabelPosition=bottom;verticalAlign=top;image=https://www.kindpng.com/picc/m/83-830172_docker-registry-logo-hd-png-download.png;" vertex="1" parent="1">
                    <mxGeometry x="700" y="18.620000000000005" width="123" height="144.38" as="geometry"/>
                </mxCell>
                <mxCell id="20" value="&lt;font size=&quot;3&quot;&gt;Deploy a Web Application&lt;/font&gt;&lt;br&gt;&lt;font style=&quot;font-size: 24px&quot;&gt;Django x GitHub Action x Docker Hub&lt;/font&gt;" style="text;html=1;strokeColor=none;fillColor=none;align=center;verticalAlign=middle;whiteSpace=wrap;rounded=0;" vertex="1" parent="1">
                    <mxGeometry x="150" y="75.81" width="450" height="30" as="geometry"/>
                </mxCell>
                <mxCell id="21" value="" style="shape=image;imageAspect=0;aspect=fixed;verticalLabelPosition=bottom;verticalAlign=top;fontSize=24;image=https://yt3.ggpht.com/ytc/AKedOLRs-hMid4-JYP37HhKyF7EPHMFo128_0SCUnOewJg=s900-c-k-c0x00ffffff-no-rj;" vertex="1" parent="1">
                    <mxGeometry x="70" y="300" width="90" height="90" as="geometry"/>
                </mxCell>
            </root>
        </mxGraphModel>
    </diagram>
</mxfile>